<?xml version="1.0" encoding="UTF-8" standalone="no"?><!DOCTYPE svg PUBLIC "-//W3C//DTD SVG 1.1//EN" "http://www.w3.org/Graphics/SVG/1.1/DTD/svg11.dtd"><svg width="100%" height="100%" viewBox="0 0 2097 2046" version="1.1" xmlns="http://www.w3.org/2000/svg" xmlns:xlink="http://www.w3.org/1999/xlink" xml:space="preserve" xmlns:serif="http://www.serif.com/" style="fill-rule:evenodd;clip-rule:evenodd;stroke-linejoin:round;stroke-miterlimit:2;"><path d="M1048.4,-0c-578.941,-0 -1048.4,469.358 -1048.4,1048.4c0,463.194 300.399,856.18 716.962,994.809c52.396,9.705 71.632,-22.743 71.632,-50.434c-0,-24.983 -0.972,-107.587 -1.424,-195.191c-291.667,63.42 -353.212,-123.698 -353.212,-123.698c-47.691,-121.163 -116.406,-153.403 -116.406,-153.403c-95.121,-65.069 7.17,-63.733 7.17,-63.733c105.278,7.396 160.712,108.056 160.712,108.056c93.507,160.26 245.26,113.924 305.087,87.135c9.427,-67.743 36.58,-114.01 66.562,-140.191c-232.864,-26.493 -477.656,-116.406 -477.656,-518.125c0,-114.444 40.955,-207.986 108.021,-281.406c-10.886,-26.406 -46.771,-133.038 10.174,-277.448c-0,0 88.038,-28.159 288.368,107.483c83.628,-23.229 173.316,-34.879 262.413,-35.295c89.097,0.416 178.854,12.066 262.639,35.295c200.104,-135.642 288.021,-107.483 288.021,-107.483c57.065,144.41 21.18,251.042 10.295,277.448c67.222,73.42 107.882,166.962 107.882,281.406c-0,402.691 -245.261,491.337 -478.716,517.292c37.604,32.535 71.111,96.337 71.111,194.149c0,140.278 -1.197,253.178 -1.197,287.709c-0.001,27.916 18.854,60.59 71.996,50.312c416.354,-138.784 716.372,-531.632 716.372,-994.687c-0,-579.045 -469.393,-1048.4 -1048.4,-1048.4" style="fill:#181717;"/><path d="M397.09,1505.26c-2.309,5.226 -10.503,6.788 -17.968,3.212c-7.622,-3.438 -11.875,-10.538 -9.41,-15.764c2.257,-5.347 10.451,-6.84 18.055,-3.264c7.605,3.42 11.945,10.59 9.323,15.816" style="fill:#181717;fill-rule:nonzero;"/><path d="M439.561,1552.63c-5,4.635 -14.792,2.482 -21.406,-4.844c-6.875,-7.309 -8.143,-17.101 -3.073,-21.788c5.156,-4.636 14.635,-2.466 21.493,4.843c6.875,7.396 8.211,17.084 2.986,21.789" style="fill:#181717;fill-rule:nonzero;"/><path d="M480.896,1613.01c-6.424,4.479 -16.945,0.295 -23.438,-9.028c-6.423,-9.34 -6.423,-20.521 0.157,-25c6.493,-4.479 16.857,-0.434 23.437,8.802c6.406,9.479 6.406,20.66 -0.156,25.226" style="fill:#181717;fill-rule:nonzero;"/><path d="M537.523,1671.35c-5.747,6.337 -17.987,4.636 -26.945,-4.028c-9.167,-8.437 -11.719,-20.434 -5.972,-26.77c5.833,-6.355 18.142,-4.566 27.17,4.01c9.097,8.438 11.858,20.521 5.747,26.788" style="fill:#181717;fill-rule:nonzero;"/><path d="M615.648,1705.22c-2.553,8.212 -14.323,11.928 -26.198,8.438c-11.858,-3.594 -19.618,-13.194 -17.223,-21.493c2.466,-8.264 14.306,-12.153 26.268,-8.42c11.84,3.576 19.618,13.125 17.153,21.475" style="fill:#181717;fill-rule:nonzero;"/><path d="M701.453,1711.5c0.295,8.646 -9.774,15.816 -22.239,15.972c-12.535,0.278 -22.691,-6.719 -22.83,-15.226c-0,-8.732 9.861,-15.816 22.378,-16.041c12.465,-0.243 22.691,6.718 22.691,15.295" style="fill:#181717;fill-rule:nonzero;"/><path d="M781.29,1697.91c1.493,8.42 -7.17,17.084 -19.549,19.393c-12.17,2.239 -23.437,-2.987 -24.982,-11.337c-1.511,-8.646 7.291,-17.309 19.461,-19.549c12.396,-2.153 23.49,2.917 25.07,11.493" style="fill:#181717;fill-rule:nonzero;"/></svg>