<?xml version="1.0" encoding="UTF-8" standalone="no"?><!DOCTYPE svg PUBLIC "-//W3C//DTD SVG 1.1//EN" "http://www.w3.org/Graphics/SVG/1.1/DTD/svg11.dtd"><svg width="100%" height="100%" viewBox="0 0 51 62" version="1.1" xmlns="http://www.w3.org/2000/svg" xmlns:xlink="http://www.w3.org/1999/xlink" xml:space="preserve" xmlns:serif="http://www.serif.com/" style="fill-rule:evenodd;clip-rule:evenodd;stroke-linejoin:round;stroke-miterlimit:2;"><g id="apple"><path d="M12.458,60.708c-1.041,-0.666 -2.125,-1.625 -3.208,-2.958c-0.75,-0.875 -1.667,-2.125 -2.75,-3.75c-1.875,-2.708 -3.417,-5.833 -4.583,-9.375c-1.292,-3.875 -1.917,-7.583 -1.917,-11.208c0,-4.042 0.875,-7.584 2.583,-10.542c1.334,-2.375 3.125,-4.25 5.417,-5.625c2.292,-1.417 4.708,-2.125 7.333,-2.167c0.917,0 1.875,0.125 2.917,0.375c0.75,0.209 1.667,0.542 2.75,0.959c1.417,0.541 2.208,0.875 2.458,0.958c0.834,0.292 1.542,0.417 2.084,0.417c0.416,-0 1,-0.125 1.666,-0.334c0.375,-0.125 1.084,-0.375 2.084,-0.791c1,-0.375 1.791,-0.667 2.416,-0.917c0.959,-0.292 1.875,-0.542 2.709,-0.667c1,-0.166 2,-0.208 2.958,-0.125c1.833,0.125 3.5,0.5 5,1.084c2.625,1.041 4.75,2.708 6.333,5.041c-0.666,0.417 -1.291,0.875 -1.875,1.417c-1.291,1.167 -2.375,2.458 -3.166,3.875c-1.125,2 -1.667,4.208 -1.667,6.5c0.042,2.792 0.75,5.25 2.167,7.375c1,1.542 2.333,2.875 3.958,3.958c0.792,0.542 1.5,0.917 2.167,1.167c-0.334,1.083 -0.709,2.042 -1.042,2.833c-0.917,2.167 -2,4.125 -3.208,5.959c-1.125,1.625 -2,2.833 -2.667,3.625c-1.042,1.25 -2.042,2.166 -3.042,2.833c-1.166,0.75 -2.416,1.125 -3.75,1.125c-0.916,0.042 -1.791,-0.083 -2.666,-0.333c-0.5,-0.167 -1.25,-0.417 -2.209,-0.834c-0.958,-0.416 -1.75,-0.708 -2.333,-0.875c-0.958,-0.25 -1.958,-0.375 -3,-0.375c-1.042,0 -2.042,0.125 -3,0.375c-0.667,0.167 -1.417,0.459 -2.333,0.834c-1.084,0.458 -1.792,0.75 -2.209,0.875c-0.833,0.25 -1.708,0.416 -2.541,0.458c-1.334,0 -2.584,-0.375 -3.834,-1.167Zm17.667,-47.583c-1.75,0.875 -3.417,1.25 -5.083,1.125c-0.25,-1.667 -0,-3.375 0.708,-5.25c0.625,-1.583 1.458,-3.042 2.583,-4.333c1.125,-1.292 2.5,-2.375 4.209,-3.25c1.708,-0.875 3.333,-1.334 4.875,-1.417c0.208,1.75 -0,3.5 -0.625,5.333c-0.584,1.667 -1.459,3.167 -2.584,4.542c-1.125,1.375 -2.5,2.458 -4.083,3.25Z" style="fill:#555;fill-rule:nonzero;"/></g></svg>