<?xml version="1.0" encoding="UTF-8" standalone="no"?><!DOCTYPE svg PUBLIC "-//W3C//DTD SVG 1.1//EN" "http://www.w3.org/Graphics/SVG/1.1/DTD/svg11.dtd"><svg width="100%" height="100%" viewBox="0 0 400 380" version="1.1" xmlns="http://www.w3.org/2000/svg" xmlns:xlink="http://www.w3.org/1999/xlink" xml:space="preserve" xmlns:serif="http://www.serif.com/" style="fill-rule:evenodd;clip-rule:evenodd;"><g><clipPath id="_clip1"><path d="M0,0l32.292,0c104.002,-0 189.583,85.581 189.583,189.583c0,104.003 -85.581,189.584 -189.583,189.584l-32.292,-0l0,-83.334l32.292,0c58.287,0 106.25,-47.963 106.25,-106.25c-0,-58.287 -47.963,-106.25 -106.25,-106.25l-32.292,0l0,-83.333Zm151.046,-0l133.334,-0c63.43,-0 115.625,52.195 115.625,115.625c0,27.014 -9.467,53.193 -26.747,73.958c17.28,20.766 26.747,46.944 26.747,73.959c0,63.43 -52.195,115.625 -115.625,115.625l-133.334,-0c32.806,-20.55 59.724,-49.268 78.11,-83.334l55.219,0c17.715,0 32.292,-14.577 32.292,-32.291c-0,-17.715 -14.577,-32.292 -32.292,-32.292l-32.292,0c5.22,-27.532 5.22,-55.801 0,-83.333l32.292,-0c17.715,-0 32.292,-14.577 32.292,-32.292c-0,-17.715 -14.577,-32.292 -32.292,-32.292l-55.219,0c-18.386,-34.066 -45.304,-62.783 -78.11,-83.333Z"/></clipPath><g clip-path="url(#_clip1)"><path d="M-529.167,-425l0,1250l1250,0l-1250,-1250Z" style="fill:url(#_Linear2);fill-rule:nonzero;"/><path d="M-304.167,-425l1250,-0l0,1250l-1250,-1250Z" style="fill:url(#_Linear3);fill-rule:nonzero;"/><path d="M-416.667,-425l1250,1250" style="fill:none;fill-rule:nonzero;stroke:url(#_Linear4);stroke-width:166.67px;"/></g></g><defs><linearGradient id="_Linear2" x1="0" y1="0" x2="1" y2="0" gradientUnits="userSpaceOnUse" gradientTransform="matrix(179.167,179.167,-179.167,179.167,29.1667,266.667)"><stop offset="0" style="stop-color:#f9a03c;stop-opacity:1"/><stop offset="1" style="stop-color:#f7974e;stop-opacity:1"/></linearGradient><linearGradient id="_Linear3" x1="0" y1="0" x2="1" y2="0" gradientUnits="userSpaceOnUse" gradientTransform="matrix(262.5,262.5,-262.5,262.5,187.5,-41.6667)"><stop offset="0" style="stop-color:#b84e51;stop-opacity:1"/><stop offset="1" style="stop-color:#f68e48;stop-opacity:1"/></linearGradient><linearGradient id="_Linear4" x1="0" y1="0" x2="1" y2="0" gradientUnits="userSpaceOnUse" gradientTransform="matrix(354.167,358.333,-358.333,354.167,8.33333,-8.33333)"><stop offset="0" style="stop-color:#f26d58;stop-opacity:1"/><stop offset="1" style="stop-color:#f9a03c;stop-opacity:1"/></linearGradient></defs></svg>