<?xml version="1.0" encoding="UTF-8" standalone="no"?><!DOCTYPE svg PUBLIC "-//W3C//DTD SVG 1.1//EN" "http://www.w3.org/Graphics/SVG/1.1/DTD/svg11.dtd"><svg width="100%" height="100%" viewBox="0 0 384 384" version="1.1" xmlns="http://www.w3.org/2000/svg" xmlns:xlink="http://www.w3.org/1999/xlink" xml:space="preserve" xmlns:serif="http://www.serif.com/" style="fill-rule:evenodd;clip-rule:evenodd;stroke-linejoin:round;stroke-miterlimit:2;"><g><path d="M375.642,174.854l-167.163,-167.154c-9.625,-9.629 -25.237,-9.629 -34.871,-0l-34.712,34.713l44.033,44.033c10.234,-3.459 21.967,-1.138 30.121,7.021c8.204,8.204 10.504,20.041 6.958,30.312l42.442,42.433c10.271,-3.537 22.108,-1.25 30.313,6.963c11.458,11.458 11.458,30.025 -0,41.492c-11.467,11.462 -30.034,11.462 -41.505,-0c-8.616,-8.629 -10.75,-21.292 -6.379,-31.913l-39.583,-39.579l-0,104.154c2.792,1.384 5.429,3.225 7.754,5.55c11.458,11.454 11.458,30.021 -0,41.496c-11.458,11.454 -30.037,11.454 -41.488,-0c-11.458,-11.475 -11.458,-30.042 0,-41.496c2.834,-2.833 6.113,-4.971 9.613,-6.404l-0,-105.117c-3.5,-1.433 -6.771,-3.554 -9.613,-6.404c-8.679,-8.675 -10.766,-21.412 -6.312,-32.071l-43.408,-43.416l-114.625,114.612c-9.625,9.638 -9.625,25.25 -0,34.879l167.171,167.159c9.624,9.625 25.233,9.625 34.87,-0l166.384,-166.379c9.629,-9.634 9.629,-25.255 -0,-34.884Z" style="fill:#f05133;fill-rule:nonzero;"/></g></svg>