<?xml version="1.0" encoding="UTF-8" standalone="no"?><!DOCTYPE svg PUBLIC "-//W3C//DTD SVG 1.1//EN" "http://www.w3.org/Graphics/SVG/1.1/DTD/svg11.dtd"><svg width="100%" height="100%" viewBox="0 0 1535 1158" version="1.1" xmlns="http://www.w3.org/2000/svg" xmlns:xlink="http://www.w3.org/1999/xlink" xml:space="preserve" xmlns:serif="http://www.serif.com/" style="fill-rule:evenodd;clip-rule:evenodd;stroke-linejoin:round;stroke-miterlimit:2;"><path d="M660.851,903.333c1.667,-1.25 2.083,-3.75 1.25,-5.833c-114.892,-246.944 -258.224,-479.632 -427.083,-693.333c-168.859,-213.702 -134.167,127.5 -124.584,255.416c4.532,59.538 32.583,114.89 77.917,153.75c117.083,114.167 400.417,258.334 466.25,291.25c2.083,0.834 4.583,0.417 6.25,-1.25m-43.75,97.5c-0.833,-2.5 -3.333,-4.166 -6.25,-4.166l-471.667,16.25c51.25,91.25 137.5,162.083 227.084,140.416c62.083,-15.416 202.083,-113.333 248.333,-146.666c3.75,-2.917 2.5,-5.417 2.5,-5.834m7.083,-42.083c2.5,-3.75 -1.666,-7.083 -1.666,-7.083c-207.084,-140 -608.75,-355 -608.75,-355c-9.121,27.957 -13.768,57.18 -13.768,86.588c0,147.969 117.644,271.55 265.434,278.828c7.084,1.25 280.417,0 353.75,-0.416c2.084,-0.417 3.75,-1.25 5,-2.917m31.25,-958.333c-20.416,1.666 -75.833,14.583 -75.833,14.583c-125,32.083 -154.583,145.833 -154.583,145.833c-22.917,71.25 0.416,150 0.416,150c41.667,185 246.667,489.584 290.834,553.334c2.916,3.333 5.416,2.083 5.416,2.083c2.5,-0.833 4.584,-2.917 4.584,-5.833c68.333,-680 -70.834,-860 -70.834,-860m156.25,865c2.5,0.833 5.417,-0 6.667,-2.5c45.417,-65.417 249.167,-368.334 290.833,-552.5c0,-0 22.5,-89.167 0.834,-150c-0,-0 -30.834,-115.417 -155.834,-145.834c0,0 -35.833,-9.166 -74.166,-14.583c-0,-0 -140,180 -71.667,860c-0.417,2.5 1.25,4.583 3.333,5.417m111.667,131.666c-2.243,0.453 -4.203,1.81 -5.417,3.75c-0.416,2.5 0,4.584 1.667,6.25c45,32.5 182.083,128.334 247.917,146.667c-0,0 122.083,41.667 227.916,-140.417l-472.083,-16.25Zm597.917,-401.25c-0,0 -400.834,215.417 -608.334,355.417c-2.083,1.667 -3.333,4.167 -2.5,6.667c0,-0 2.084,3.75 5,3.75c74.167,-0 355,0.416 362.5,-0.834c27.917,-2.083 55.417,-8.333 81.25,-18.75c0,0 100,-31.666 151.667,-145.416c0,-0 46.25,-92.5 10.417,-200.834m-646.25,307.5c1.666,1.25 4.166,1.667 6.25,0.417c67.5,-33.75 348.75,-176.667 465,-290.417c-0,0 73.75,-59.166 77.5,-154.583c8.333,-132.083 -124.584,-254.583 -124.584,-254.583c0,-0 -245.833,297.916 -426.25,691.666c-0.587,2.689 0.194,5.5 2.084,7.5" style="fill:#ce0e2d;fill-rule:nonzero;"/></svg>