<?xml version="1.0" encoding="UTF-8" standalone="no"?><!DOCTYPE svg PUBLIC "-//W3C//DTD SVG 1.1//EN" "http://www.w3.org/Graphics/SVG/1.1/DTD/svg11.dtd"><svg width="100%" height="100%" viewBox="0 0 658 606" version="1.1" xmlns="http://www.w3.org/2000/svg" xmlns:xlink="http://www.w3.org/1999/xlink" xml:space="preserve" xmlns:serif="http://www.serif.com/" style="fill-rule:evenodd;clip-rule:evenodd;stroke-linejoin:round;stroke-miterlimit:2;"><path d="M268.744,605.685c-8.111,-0 -16.167,-2.128 -23.278,-6.222l-74.094,-43.867c-11.067,-6.189 -5.667,-8.378 -2.017,-9.639c14.756,-5.166 17.75,-6.333 33.5,-15.277c1.656,-0.945 3.822,-0.612 5.517,0.388l56.922,33.778c2.056,1.111 4.972,1.111 6.878,0l221.944,-128.111c2.055,-1.166 3.389,-3.555 3.389,-6l-0,-256.11c-0,-2.556 -1.334,-4.834 -3.434,-6.111l-221.855,-128c-2.055,-1.222 -4.778,-1.222 -6.833,-0l-221.811,128c-2.15,1.222 -3.517,3.611 -3.517,6.055l0,256.111c0,2.444 1.334,4.778 3.445,5.944l60.778,35.111c33,16.5 53.166,-2.944 53.166,-22.5l0,-252.777c0,-3.611 2.833,-6.389 6.445,-6.389l28.111,0c3.5,0 6.389,2.778 6.389,6.389l-0,252.888c-0,44 -24,69.278 -65.723,69.278c-12.833,0 -22.944,0 -51.166,-13.889l-58.222,-33.555c-14.387,-8.395 -23.266,-23.843 -23.278,-40.5l0,-256.111c0,-16.667 8.889,-32.222 23.278,-40.444l222.166,-128.167c14.056,-7.944 32.722,-7.944 46.667,0l221.888,128.222c14.386,8.369 23.268,23.802 23.278,40.445l-0,256.11c-0,16.611 -8.945,32.111 -23.278,40.445l-221.888,128.166c-7.113,4.095 -15.182,6.242 -23.389,6.222" style="fill:#689f63;fill-rule:nonzero;"/><path d="M337.299,429.208c-97.111,-0 -117.472,-44.578 -117.472,-81.967c0,-3.556 2.867,-6.389 6.428,-6.389l28.667,0c3.166,0 5.833,2.306 6.333,5.433c4.333,29.212 17.222,43.945 75.944,43.945c46.778,-0 66.667,-10.567 66.667,-35.372c-0,-14.278 -5.667,-24.889 -78.333,-32c-60.778,-6 -98.333,-19.389 -98.333,-68c-0,-44.778 37.777,-71.444 101.055,-71.444c71.055,-0 106.278,24.666 110.722,77.666c0.015,0.177 0.022,0.355 0.022,0.533c-0,3.548 -2.919,6.467 -6.466,6.467l-28.834,0c-3,0 -5.611,-2.111 -6.222,-5c-6.944,-30.722 -23.722,-40.555 -69.333,-40.555c-51.056,-0 -57,17.777 -57,31.111c-0,16.166 7,20.888 75.889,30c68.222,9.055 100.611,21.833 100.611,69.777c-0,48.333 -40.334,76.056 -110.667,76.056m270.333,-271.611l7.444,0c6.112,0 7.278,-4.278 7.278,-6.778c0,-6.555 -4.5,-6.555 -7,-6.555l-7.666,-0l-0.056,13.333Zm-9.056,-21l16.5,0c5.667,0 16.778,0 16.778,12.667c0,8.833 -5.666,10.666 -9.055,11.777c6.611,0.445 7.055,4.778 7.944,10.889c0.445,3.834 1.167,10.445 2.5,12.667l-10.167,-0c-0.277,-2.222 -1.833,-14.444 -1.833,-15.111c-0.667,-2.722 -1.611,-4.056 -5,-4.056l-8.389,0l0,19.223l-9.278,-0l0,-48.056Zm-19.833,23.889c0,19.889 16.056,36 35.778,36c19.889,-0 35.944,-16.445 35.944,-36c0,-19.944 -16.278,-35.778 -36,-35.778c-19.444,0 -35.777,15.611 -35.777,35.722m78.666,0.167c0,23.556 -19.278,42.778 -42.778,42.778c-23.333,-0 -42.777,-19 -42.777,-42.778c-0,-24.222 19.889,-42.778 42.777,-42.778c23.056,0 42.723,18.611 42.723,42.778" style="fill:#689f63;fill-rule:nonzero;"/></svg>