<?xml version="1.0" encoding="UTF-8" standalone="no"?> <svg xmlns="http://www.w3.org/2000/svg" xmlns:xlink="http://www.w3.org/1999/xlink" xmlns:serif="http://www.serif.com/" width="100%" height="100%" viewBox="0 0 32 32" xml:space="preserve" style="fill-rule:evenodd;clip-rule:evenodd;stroke-linejoin:round;stroke-miterlimit:2;"> <g transform="matrix(1,0,0,1,-16,-16)"> <g id="_x33_2_14_"> <g> <path d="M37,28L20,28L20,19.3C20,18.6 20.6,18 21.3,18L35.6,18C36.3,18 36.9,18.6 36.9,19.3L36.9,28L37,28Z" style="fill:rgb(51,196,129);fill-rule:nonzero;"></path> <path d="M42,37L34.2,39.4L21.4,37C20.6,37 20,36.4 20,35.6L20,27L40.6,27C41.4,27 42,27.6 42,28.4L42,37Z" style="fill:rgb(33,163,102);fill-rule:nonzero;"></path> <path d="M27,37L46.7,37C47.4,37 48,37.6 48,38.3L48,44.8C48,45.5 47.4,46.1 46.7,46.1L28.3,46.1C27.6,46.1 27,45.5 27,44.8L27,37Z" style="fill:rgb(24,92,55);fill-rule:nonzero;"></path> </g> <g> <path d="M27,36L27,42L32.7,42C33.4,42 34,41.4 34,40.7L34,24.3C34,23.6 33.4,23 32.7,23L20,23L20,34.7C20,35.4 20.6,36 21.3,36L27,36Z" style="fill-opacity:0.1;fill-rule:nonzero;"></path> <path d="M27,36L27,43L31.7,43C32.4,43 33,42.4 33,41.7L33,25.3C33,24.6 32.4,24 31.7,24L20,24L20,34.7C20,35.4 20.6,36 21.3,36L27,36Z" style="fill-opacity:0.2;fill-rule:nonzero;"></path> <path d="M27,36L27,41L31.7,41C32.4,41 33,40.4 33,39.7L33,25.3C33,24.6 32.4,24 31.7,24L20,24L20,34.7C20,35.4 20.6,36 21.3,36L27,36Z" style="fill-opacity:0.2;fill-rule:nonzero;"></path> <path d="M27,36L27,41L30.7,41C31.4,41 32,40.4 32,39.7L32,25.3C32,24.6 31.4,24 30.7,24L20,24L20,34.7C20,35.4 20.6,36 21.3,36L27,36Z" style="fill-opacity:0.2;fill-rule:nonzero;"></path> <g> <path id="Back_Plate_97_" d="M30.7,40L17.3,40C16.6,40 16,39.4 16,38.7L16,25.3C16,24.6 16.6,24 17.3,24L30.6,24C31.3,24 31.9,24.6 31.9,25.3L31.9,38.6C32,39.4 31.4,40 30.7,40Z" style="fill:rgb(16,124,65);fill-rule:nonzero;"></path> <path d="M24,27C25.2,27 26.1,27.3 26.8,27.8C27.4,28.3 27.8,29.1 27.8,30.1C27.8,30.8 27.6,31.2 27.3,31.7C27,32.2 26.5,32.6 26,32.9C25.4,33.2 24.7,33.3 24,33.3L22,33.3L22,37L20,37L20,27L24,27ZM22,31.7L23.7,31.7C24.4,31.7 24.9,31.6 25.2,31.3C25.5,31 25.7,30.8 25.7,30.3C25.7,29.2 25.1,28.6 23.8,28.6L22,28.6L22,31.7Z" style="fill:rgb(249,247,247);fill-rule:nonzero;"></path> </g> <rect x="16" y="16" width="32" height="32" style="fill:none;"></rect> </g> </g> </g> </svg> 