<svg viewBox="0 0 1000 1000" xmlns="http://www.w3.org/2000/svg" xmlns:serif="http://www.serif.com/" fill-rule="evenodd" clip-rule="evenodd" stroke-linejoin="round" stroke-miterlimit="1.414"><g serif:id="affinity_publisher_icon" transform="translate(-722.864 -408.776) scale(2.30947)"><path serif:id="affinity_publisher_icon" d="M746 189.99c0-7.169-5.821-12.99-12.99-12.99H325.99c-7.169 0-12.99 5.821-12.99 12.99v407.02c0 7.169 5.821 12.99 12.99 12.99h407.02c7.169 0 12.99-5.821 12.99-12.99V189.99z" fill="none"/><clipPath id="a"><path serif:id="affinity_publisher_icon" d="M746 189.99c0-7.169-5.821-12.99-12.99-12.99H325.99c-7.169 0-12.99 5.821-12.99 12.99v407.02c0 7.169 5.821 12.99 12.99 12.99h407.02c7.169 0 12.99-5.821 12.99-12.99V189.99z"/></clipPath><g clip-path="url(#a)"><path d="M746 189.99c0-7.169-5.821-12.99-12.99-12.99H325.99c-7.169 0-12.99 5.821-12.99 12.99v407.02c0 7.169 5.821 12.99 12.99 12.99h407.02c7.169 0 12.99-5.821 12.99-12.99V189.99z" fill="#c9284d"/><path d="M746 189.99c0-7.169-5.821-12.99-12.99-12.99H490.53L313 484.491V597.01c0 7.169 5.821 12.99 12.99 12.99h407.02c7.169 0 12.99-5.821 12.99-12.99V189.99z" fill="#bd163d"/><path d="M513.198 610H313l.002-118.01 66.032-114.37L513.198 610zm93.095 0h-86.6c-42.333-73.228-83.599-144.498-125.761-217.824-7.031-12.34-7.164-27.908.076-40.51l31.575-54.67L606.293 610zm93.095 0h-86.6L428.83 291.372l43.298-74.998L699.388 610zm6.495 0L475.377 210.749 494.862 177h47.628L746 529.265V610h-40.117zM746 177v341.24L548.985 177H746z" fill="#8d102d"/><path d="M152.5 489.304L447.35 1000H0V753.442l152.5-264.138zM1000 1000h-77.65L390 77.942 435 0h80l485 840.045V1000zm-122.65 0h-170L285 259.808l82.5-142.895L877.35 1000zm-215 0h-170S272.131 618.436 198.353 490.781a80.874 80.874 0 0 1-.012-80.919l61.663-106.763L662.35 1000zM560 0h440v762.102L560 0z" fill="url(#_Radial2)" transform="matrix(.433 0 0 .433 313 177)"/><path d="M897.319 1034.59l-170.096.24L285 259.808l82.5-142.895 529.819 917.677zm-215.156-.27l-170.389-.68-10.441-18.09-28.156-48.778-41.118-71.235-23.935-41.464-25.394-43.99-26.258-45.486-26.529-45.953-26.205-45.389-25.288-43.797-23.776-41.176-11.136-19.283-10.535-18.241-9.861-17.071-9.111-15.773-8.288-14.344-7.39-12.789-.169-.294-.167-.294-.167-.294-.165-.296-.163-.295-.162-.297-.161-.296-.16-.297-.158-.298-.157-.298-.156-.299-.154-.299-.153-.3-.152-.3-.15-.301-.149-.301-.148-.301-.146-.302-.145-.303-.144-.303-.142-.303-.142-.304-.139-.304-.139-.305-.137-.305-.136-.306-.134-.306-.133-.306-.132-.307-.131-.307-.129-.308-.127-.308-.127-.309-.125-.308-.124-.31-.123-.309-.121-.31-.12-.311-.118-.31-.117-.312-.116-.311-.115-.312-.113-.312-.112-.313-.111-.313-.109-.313-.108-.314-.107-.314-.105-.314-.104-.314-.103-.315-.101-.316-.1-.315-.099-.316-.097-.316-.096-.317-.095-.317-.093-.317-.092-.317-.091-.318-.09-.318-.088-.318-.087-.318-.085-.319-.084-.319-.083-.32-.081-.319-.081-.32-.078-.32-.078-.32-.076-.321-.075-.321-.074-.321-.072-.321-.071-.322-.069-.321-.068-.322-.067-.322-.066-.323-.064-.322-.063-.323-.062-.323-.06-.323-.059-.323-.058-.324-.056-.324-.055-.323-.054-.324-.052-.325-.051-.324-.05-.325-.048-.324-.047-.325-.046-.325-.044-.325-.044-.325-.041-.326-.041-.325-.039-.326-.038-.326-.036-.326-.035-.326-.034-.326-.033-.326-.031-.326-.03-.327-.028-.326-.027-.327-.026-.326-.025-.327-.023-.327-.022-.327-.02-.327-.02-.327-.017-.327-.017-.327-.015-.327-.014-.327-.013-.327-.011-.328-.01-.327-.009-.327-.007-.328-.006-.327-.005-.328-.003-.327-.002-.328-.001-.327.001-.327.002-.328.003-.327.004-.328.006-.327.008-.328.008-.327.01-.327.011-.328.013-.327.014-.327.015-.327.016-.327.018-.327.019-.327.021-.327.022-.327.023-.327.024-.327.026-.327.027-.326.028-.327.03-.326.031-.326.033-.327.033-.326.035-.326.037-.325.037-.326.039-.326.041-.325.041-.326.043-.325.045-.325.045-.325.047-.325.049-.325.049-.324.051-.325.053-.324.053-.324.055-.324.056-.323.058-.324.059-.323.06-.323.061-.323.063-.323.064-.323.066-.322.067-.322.068-.322.069-.322.071-.321.072-.322.074-.321.075-.321.076-.32.077-.321.079-.32.08-.319.081-.32.083-.319.084-.319.085-.319.087-.319.088-.318.089-.318.091-.318.092-.317.093-.317.095-.317.096-.317.097-.316.099-.316.1-.315.101-.316.103-.315.104-.314.105-.315.106-.314.108-.313.109-.314.111-.313.112-.312.113-.312.114-.312.116-.312.117-.311.119-.311.12-.31.121-.31.122-.31.124-.309.125-.309.127-.309.127-.308.129-.307.131-.308.131-.307.133-.306.135-.306.135-.306.137-.305.139-.305.139-.304.141-.304.143-.303.143-.303.145-.303.147-.302.147-.301.149-.302.15-.3.152-.3.153-.3.154-.299.156-.299.157-.298.158-.298.159-.297.161-.297.162-.296.164-.296.165-.295.166-.295.167-.294.169-.294 61.663-106.763 422.159 731.221zm-717.892-1.97l10.973-236.029L152.5 489.304l314.214 544.236-502.443-1.19zM1022.52 879.047l4.22 153.303-85.321.68L390 77.942 456.639-37.48l36.712-.017 529.169 916.544zM298.836 259.843l435.35 762.977 142.365-.2L367.5 140.913l-68.664 118.93zm-90.098 156.012l-.151.261-.141.247-.141.251-.142.254-.139.252-.138.252-.136.252-.136.253-.136.256-.134.254-.132.254-.131.254-.13.255-.129.255-.128.256-.128.259-.125.257-.125.256-.123.257-.122.258-.121.258-.12.258-.12.262-.118.259-.116.26-.115.259-.114.26-.115.264-.112.261-.111.261-.11.261-.108.262-.108.263-.106.262-.105.263-.104.263-.104.267-.102.264-.101.264-.101.268-.098.265-.096.261-.096.265-.096.269-.094.266-.093.266-.093.271-.091.266-.088.263-.088.268-.088.271-.086.268-.085.268-.085.273-.083.268-.081.269-.081.269-.079.27-.078.269-.077.27-.076.27-.075.271-.075.274-.072.271-.071.271-.071.272-.069.271-.069.276-.067.272-.066.272-.064.272-.064.273-.062.272-.061.273-.062.278-.059.273-.057.274-.057.273-.056.274-.054.274-.054.274-.053.279-.051.275-.05.274-.049.275-.048.275-.047.28-.046.275-.043.271-.044.276-.042.28-.042.28-.04.276-.038.272-.038.276-.037.281-.035.276-.035.277-.033.276-.032.277-.031.281-.03.277-.029.277-.027.278-.027.277-.025.277-.024.278-.023.282-.022.277-.021.278-.02.277-.018.278-.018.278-.016.278-.015.282-.014.278-.013.278-.012.278-.011.278-.009.283-.009.278-.007.274-.006.278-.005.283-.004.282-.003.279-.002.273v.279l.001.282.001.278.003.279.004.278.005.278.007.283.007.278.008.278.01.278.011.278.012.278.013.278.014.283.015.278.017.278.017.277.019.278.019.278.021.277.023.282.023.278.024.277.025.278.027.277.028.281.028.277.03.277.031.277.032.277.034.277.034.276.035.277.037.276.039.281.038.276.04.276.042.28.042.276.043.271.044.275.047.28.046.275.048.275.05.279.05.275.051.27.052.275.054.278.055.274.056.274.057.278.058.273.059.274.06.273.062.273.062.272.064.273.065.272.066.272.068.276.068.272.069.271.07.272.072.271.074.275.073.27.075.271.076.27.077.27.078.269.08.27.081.273.082.268.083.269.083.268.085.268.086.268.088.268.089.271.09.267.09.267.092.266.093.266.095.27.095.266.095.261.098.265.1.268.101.269.1.264.1.259.104.264.105.267.105.262.107.263.107.262.109.262.111.265.111.261.112.26.113.261.114.26.116.259.116.26.12.262.118.259.12.258.121.258.122.257.124.257.124.257.127.26.127.256.128.255.129.256.13.254.133.258.132.254.132.25.134.253.138.256.138.256.138.252.138.248.14.251.143.254.143.25.15.261 7.384 12.779 8.289 14.346 9.111 15.773 9.861 17.071 10.535 18.242 11.136 19.283 23.777 41.176 25.288 43.798 26.206 45.39 26.528 45.952 26.259 45.486 25.394 43.99 23.934 41.465 41.119 71.236 28.156 48.776 6.993 12.12 142.612.57-401.329-695.144-51.264 88.759zM-12.904 799.793l-10.255 220.587 469.06 1.11L152.5 513.304-12.904 799.793zM463.569-25.483L403.856 77.942l544.459 943.028 66.095-.53-3.8-138.025L486.425-25.494l-22.856.011zm565.681 838.247L538.405-37.404l483.945-1.308 6.9 851.476zM559.157-25.46l457.723 792.802-6.43-794.022-451.293 1.22z" fill="url(#_Linear3)" transform="matrix(.433 0 0 .433 313 177)"/></g></g><defs><radialGradient id="_Radial2" cx="0" cy="0" r="1" gradientUnits="userSpaceOnUse" gradientTransform="translate(764.244 -187.941) scale(1187.94)"><stop offset="0" stop-color="#ffae71"/><stop offset="1" stop-color="#ff9350"/></radialGradient><linearGradient id="_Linear3" x2="1" gradientUnits="userSpaceOnUse" gradientTransform="matrix(0 1000 -1000 0 1892.5 0)"><stop offset="0" stop-color="#ffbc8f"/><stop offset="1" stop-color="#ffa16b"/></linearGradient></defs></svg>