<?xml version="1.0" encoding="UTF-8" standalone="no"?><!DOCTYPE svg PUBLIC "-//W3C//DTD SVG 1.1//EN" "http://www.w3.org/Graphics/SVG/1.1/DTD/svg11.dtd"><svg width="100%" height="100%" viewBox="0 0 171 146" version="1.1" xmlns="http://www.w3.org/2000/svg" xmlns:xlink="http://www.w3.org/1999/xlink" xml:space="preserve" xmlns:serif="http://www.serif.com/" style="fill-rule:evenodd;clip-rule:evenodd;stroke-linejoin:round;stroke-miterlimit:2;"><path d="M126.628,125.394c-0.592,-0 -1.185,-0.013 -1.779,-0.037c-8.385,12.73 -22.6,20.476 -38.016,20.476l-0,-11.61c12.455,0 23.842,-6.773 29.803,-17.724l1.898,-3.487l3.939,0.505c1.379,0.177 2.776,0.266 4.155,0.266c17.852,0 32.386,-14.533 32.386,-32.386c-0,-9.574 -4.442,-18.951 -11.867,-25.053l-2.29,-1.882l0.181,-2.958c0.038,-0.613 0.057,-1.238 0.057,-1.856c-0,-17.132 -13.948,-31.08 -31.08,-31.08c-6.172,0 -12.116,1.802 -17.244,5.225l-4.322,2.884l-3.344,-3.977c-5.937,-7.062 -14.579,-11.09 -23.8,-11.09c-17.132,0 -31.079,13.948 -31.079,31.08c-0,0.479 0.011,0.963 0.034,1.442l0.184,3.943l-3.599,1.621c-11.701,5.271 -19.235,16.916 -19.235,29.744c0,17.973 14.631,32.604 32.603,32.604c1.91,0 3.826,-0.167 5.695,-0.496l4.359,-0.767l1.894,4c5.598,11.824 17.613,19.442 30.672,19.442l-0,11.61c-16.118,0 -31.012,-8.61 -39.158,-22.313c-1.152,0.089 -2.307,0.134 -3.462,0.134c-24.384,0 -44.213,-19.829 -44.213,-44.214c-0,-16.112 8.76,-30.843 22.656,-38.607c0.975,-22.686 19.727,-40.833 42.649,-40.833c10.989,-0 21.406,4.183 29.289,11.629c5.992,-3.068 12.616,-4.671 19.421,-4.671c23.427,0 42.5,18.956 42.689,42.339c8.779,8.268 13.92,20.02 13.92,32.1c-0,24.265 -19.731,43.997 -43.996,43.997Zm-17.742,-37.618c-3.942,1.508 -7.824,2.272 -11.558,2.272c-3.747,0 -7.443,-0.768 -10.975,-2.278c-0.143,-0.06 -0.143,-0.06 -0.285,-0.12c-1.302,-0.561 -1.859,-1.235 -1.859,-2.715l-0,-1.977c-0,-1.738 1.001,-2.856 2.633,-2.856l0.365,0.049l0.098,0.038c3.231,1.275 6.6,1.92 10.017,1.92c3.43,0 7.021,-0.65 10.673,-1.935l0.329,-0.072l0.091,-0c1.632,-0 2.634,1.118 2.634,2.856l-0,1.977c-0,1.573 -0.54,2.143 -2.049,2.792l-0.114,0.049Zm-48.406,-18.949l10.672,-2.802l-10.697,-2.807c-1.109,-0.291 -1.909,-1.166 -1.909,-2.698l-0,-3.364c-0,-1.471 0.882,-2.104 1.892,-2.104c0.327,0 0.665,0.071 1.003,0.199l19.047,6.162c1.447,0.482 2.243,1.644 2.243,3.236l-0,2.753c-0,1.591 -0.795,2.754 -2.244,3.237l-19.087,6.174c-0.323,0.095 -0.61,0.142 -0.89,0.142c-1.196,0 -1.964,-0.86 -1.964,-2.111l-0,-3.314c-0,-1.593 0.826,-2.47 1.934,-2.703Z" style="fill:#5a5e73;fill-rule:nonzero;"/></svg>