<?xml version="1.0" encoding="UTF-8" standalone="no"?><!DOCTYPE svg PUBLIC "-//W3C//DTD SVG 1.1//EN" "http://www.w3.org/Graphics/SVG/1.1/DTD/svg11.dtd"><svg width="100%" height="100%" viewBox="0 0 3225 3649" version="1.1" xmlns="http://www.w3.org/2000/svg" xmlns:xlink="http://www.w3.org/1999/xlink" xml:space="preserve" xmlns:serif="http://www.serif.com/" style="fill-rule:evenodd;clip-rule:evenodd;stroke-linejoin:round;stroke-miterlimit:2;"><path d="M1612.5,0l1612.5,912.083l0,1824.58l-1612.5,912.083l-1612.5,-912.083l0,-1824.58l1612.5,-912.083Z" style="fill:#fff;fill-rule:nonzero;"/><path d="M2937.08,2673.75l-1271.25,719.167l0,-560l792.084,-435.834l479.166,276.667Zm87.084,-78.75l-0,-1503.75l-465,268.75l-0,966.667l465,268.333Zm-2741.25,78.75l1271.25,719.167l-0,-560l-792.5,-435.834l-478.75,276.667Zm-87.084,-78.75l0,-1503.75l465,268.75l0,966.667l-465,268.333Zm54.584,-1601.25l1303.75,-737.5l-0,541.25l-835.417,459.583l-6.667,3.75l-461.666,-267.083Zm2719.17,0l-1303.75,-737.5l0,541.25l835.417,459.167l6.667,3.75l461.666,-266.667Z" style="fill:#8ed6fb;fill-rule:nonzero;"/><path d="M1554.17,2705.42l-781.667,-430l0,-851.25l781.667,451.25l-0,830Zm111.666,-0l781.667,-429.584l0,-851.666l-781.667,451.25l0,830Zm-840.416,-1379.58l784.583,-431.25l784.583,431.25l-784.583,452.917l-784.583,-452.917Z" style="fill:#1c78c0;fill-rule:nonzero;"/></svg>